<?xml version="1.0" standalone="no"?>
<!DOCTYPE svg PUBLIC "-//W3C//DTD SVG 20010904//EN"
 "http://www.w3.org/TR/2001/REC-SVG-20010904/DTD/svg10.dtd">
<svg version="1.0" xmlns="http://www.w3.org/2000/svg"
 width="260.000000pt" height="260.000000pt" viewBox="0 0 260.000000 260.000000"
 preserveAspectRatio="xMidYMid meet">
<metadata>
Created by potrace 1.14, written by Peter Selinger 2001-2017
</metadata>
<g transform="translate(0.000000,260.000000) scale(0.100000,-0.100000)"
fill="#000000" stroke="none">
<path d="M1315 2470 c-16 -17 -16 -20 -3 -15 9 4 19 13 22 21 7 19 2 18 -19
-6z"/>
<path d="M1255 2460 c3 -5 8 -10 11 -10 2 0 4 5 4 10 0 6 -5 10 -11 10 -5 0
-7 -4 -4 -10z"/>
<path d="M1358 2454 c-4 -3 -37 -6 -75 -7 -49 -1 -70 -5 -70 -14 0 -6 4 -10 8
-7 12 7 6 -100 -6 -108 -6 -5 -2 -8 8 -8 10 0 15 -5 12 -10 -4 -6 -10 -8 -15
-5 -5 3 -12 1 -15 -5 -4 -6 -1 -9 6 -8 6 2 13 -2 16 -8 2 -7 -6 -10 -21 -9
-22 3 -24 1 -16 -15 12 -23 30 -35 30 -21 0 6 -4 11 -10 11 -5 0 -10 4 -10 10
0 5 7 7 15 4 17 -7 16 -37 -1 -67 -9 -16 -11 -16 -22 8 -7 16 -17 23 -24 19
-7 -4 -8 -3 -4 5 4 6 12 8 18 5 6 -4 6 1 -1 14 -6 11 -18 22 -26 26 -10 3 -13
11 -9 18 5 8 0 7 -11 -2 -14 -11 -19 -12 -22 -2 -3 6 -10 9 -16 5 -7 -4 -5 2
3 12 14 17 13 18 -2 12 -10 -3 -18 -2 -18 4 0 6 -4 7 -10 4 -5 -3 -7 0 -4 8 4
11 -1 13 -21 10 -14 -3 -28 -10 -32 -16 -4 -6 -1 -7 8 -2 8 5 5 -1 -5 -13 -20
-23 -32 -30 -21 -12 3 6 1 10 -4 10 -6 0 -11 -7 -11 -15 0 -18 -36 -38 -52
-29 -6 4 -8 3 -4 -4 3 -6 1 -12 -6 -15 -7 -2 -5 -3 4 -2 14 2 15 0 5 -15 -6
-10 -16 -16 -22 -12 -5 3 -4 -1 2 -10 7 -8 9 -18 5 -22 -4 -4 0 -6 8 -4 8 2
14 -3 15 -11 0 -8 8 -15 18 -17 9 -1 15 2 11 7 -3 5 -11 6 -17 3 -7 -4 -9 -4
-5 1 4 4 3 14 -3 22 -6 7 -8 13 -4 13 16 0 44 -46 39 -65 -4 -18 -4 -18 6 -2
13 20 31 23 28 5 -2 -7 3 -12 10 -10 7 1 17 -9 24 -23 6 -13 16 -21 22 -18 6
4 4 -1 -4 -12 -14 -17 -13 -17 8 -10 22 6 23 5 11 -17 -11 -21 -11 -22 5 -9
15 12 16 12 9 -5 -6 -17 -5 -18 12 -4 17 14 18 13 12 -2 -4 -12 -2 -15 7 -12
8 3 17 0 22 -7 4 -7 3 -10 -3 -6 -6 4 -13 0 -17 -8 -3 -8 0 -14 7 -12 7 1 11
-4 9 -11 -1 -8 2 -11 8 -7 6 3 8 11 5 16 -3 5 1 6 9 3 22 -8 48 -53 42 -71 -5
-13 -4 -14 8 -4 12 10 14 7 13 -21 -1 -18 -6 -36 -12 -40 -7 -5 -7 -8 0 -8 15
0 16 -43 2 -52 -9 -6 -9 -8 1 -8 6 0 12 -7 12 -15 0 -8 -5 -15 -12 -15 -6 0
-3 -7 8 -16 10 -8 13 -12 6 -9 -9 5 -12 1 -10 -11 3 -19 -2 -21 -37 -8 l-20 7
20 -17 c11 -10 15 -15 8 -12 -6 4 -16 -2 -22 -11 -6 -10 -11 -13 -11 -8 0 6
-3 6 -8 0 -4 -6 -24 -21 -44 -32 -35 -20 -38 -21 -47 -5 -7 12 -10 13 -11 3 0
-11 -3 -11 -17 0 -16 13 -17 12 -5 -3 8 -9 11 -23 7 -30 -4 -7 1 -4 10 7 10
11 15 14 13 6 -2 -8 -14 -21 -27 -29 -18 -13 -22 -13 -19 -1 2 8 -2 13 -8 12
-19 -4 -66 46 -60 63 3 9 2 12 -5 9 -5 -4 -7 -16 -4 -28 4 -15 0 -13 -12 8
-10 17 -25 31 -33 33 -10 1 -9 -2 4 -13 11 -8 17 -17 15 -20 -11 -10 -48 35
-44 54 4 20 -9 22 -34 7 -11 -7 -13 -5 -8 7 3 9 2 17 -3 19 -5 2 -11 15 -14
30 -2 15 -7 31 -10 36 -3 5 -7 20 -10 35 -4 21 -1 25 12 19 14 -5 15 -4 2 10
-8 9 -18 14 -22 11 -5 -2 -8 5 -8 17 0 12 -5 30 -11 41 -7 15 -7 24 1 34 8 10
8 15 -1 21 -8 5 -10 3 -4 -7 5 -8 4 -10 0 -6 -9 7 -14 24 -19 59 -1 10 -5 20
-8 24 -4 3 -4 12 -1 20 3 8 1 14 -3 15 -5 0 -21 3 -36 5 -18 3 -28 0 -28 -7 0
-7 -3 -9 -6 -6 -4 4 -1 15 7 24 13 16 12 17 -3 5 -10 -8 -23 -10 -30 -6 -8 5
-8 1 2 -11 8 -10 10 -16 3 -12 -6 4 -14 3 -18 -3 -3 -5 -13 -10 -21 -10 -8 0
-12 4 -9 10 3 6 -1 7 -9 4 -9 -3 -13 -10 -10 -15 3 -5 0 -9 -5 -9 -6 0 -11 5
-11 12 0 6 -3 9 -6 6 -3 -4 -1 -15 4 -25 6 -11 7 -25 2 -33 -9 -15 -2 -42 10
-35 4 3 11 -2 14 -11 3 -8 2 -12 -3 -9 -5 3 -13 1 -16 -5 -4 -6 -3 -10 2 -9
21 4 32 -2 27 -15 -3 -8 0 -17 5 -21 6 -3 9 -11 5 -16 -3 -5 0 -17 8 -26 9
-12 9 -15 1 -9 -8 4 -13 2 -13 -8 0 -8 -3 -17 -8 -20 -4 -2 -8 11 -8 30 0 19
4 34 9 34 6 0 8 3 5 6 -4 3 -16 1 -27 -6 -20 -10 -20 -12 -6 -27 9 -8 13 -18
9 -22 -4 -3 -9 0 -11 7 -3 6 -9 12 -14 12 -6 0 -7 -5 -3 -12 4 -7 3 -8 -5 -4
-6 4 -8 12 -5 18 4 6 -1 8 -16 3 -19 -6 -21 -5 -11 13 7 14 8 23 1 27 -9 6
-14 -1 -11 -17 0 -3 -7 -5 -17 -3 -9 2 -21 4 -25 4 -5 1 -5 6 -1 12 4 8 9 7
15 -2 6 -10 8 -8 7 8 -2 20 -3 20 -28 4 l-25 -16 19 30 c19 30 19 30 -1 13
-22 -20 -43 -23 -43 -7 0 5 4 8 8 5 5 -3 9 1 9 9 0 10 -4 12 -12 5 -7 -5 -16
-6 -20 -2 -5 4 -5 1 -1 -5 5 -9 2 -11 -7 -7 -8 3 -18 0 -22 -6 -5 -8 -11 -7
-23 2 -14 11 -14 11 -5 -6 8 -15 7 -25 -4 -43 -8 -13 -12 -23 -9 -23 4 0 -8
-14 -26 -32 -18 -18 -25 -29 -16 -25 13 4 15 2 11 -10 -4 -11 -3 -14 6 -9 7 5
26 -3 45 -18 19 -14 36 -22 40 -19 3 4 6 1 6 -6 0 -8 7 -11 15 -7 9 3 18 -1
21 -9 4 -8 9 -13 14 -10 4 2 22 -7 40 -20 25 -19 29 -25 16 -25 -15 0 -16 -3
-6 -15 7 -9 10 -18 6 -22 -3 -3 -6 -1 -6 5 0 6 -9 9 -21 7 -17 -4 -19 -2 -9
10 10 12 10 15 0 15 -9 0 -10 3 -1 14 9 10 8 15 -2 19 -17 6 -15 -62 3 -73 8
-5 2 -7 -17 -6 -16 2 -36 6 -43 11 -8 5 -11 4 -6 -3 3 -6 2 -13 -4 -17 -10 -6
-15 9 -10 30 1 5 -2 6 -7 2 -4 -5 -8 -16 -8 -24 0 -9 -10 -17 -22 -19 -17 -3
-21 0 -17 14 5 15 4 14 -10 -2 -8 -10 -13 -23 -9 -29 3 -5 -4 -6 -18 -2 -17 4
-20 4 -10 -4 15 -9 26 -45 12 -37 -4 3 -6 -5 -5 -17 1 -12 3 -25 3 -29 1 -5 6
-8 12 -8 8 0 8 4 0 14 -9 11 -9 16 0 22 7 4 9 3 5 -4 -3 -6 -2 -13 4 -17 6 -4
8 -10 5 -15 -3 -5 -1 -19 6 -31 8 -15 8 -19 0 -15 -6 4 -11 2 -11 -3 0 -6 7
-11 15 -11 9 0 12 -6 9 -17 -5 -15 -4 -15 4 -4 11 15 30 22 75 24 15 1 27 5
27 9 0 5 3 7 8 7 4 -1 9 0 12 1 3 1 18 4 35 6 16 3 32 9 35 12 3 4 12 7 20 7
8 0 19 4 23 10 5 5 6 -1 2 -15 l-6 -25 15 25 c9 14 15 19 16 13 0 -7 4 -13 10
-13 5 0 9 5 7 12 -1 7 7 13 18 13 11 1 28 5 37 9 10 5 25 6 33 2 8 -3 15 -1
15 5 0 6 6 9 14 6 7 -3 19 0 25 6 8 8 11 6 11 -7 0 -9 5 -14 10 -11 6 3 10 1
10 -4 0 -6 5 -11 11 -11 5 0 7 5 3 11 -5 8 -1 8 14 0 12 -6 25 -18 30 -27 5
-9 11 -15 13 -14 12 4 38 -14 32 -23 -4 -6 2 -8 15 -5 23 6 34 -4 39 -36 3
-16 1 -17 -12 -6 -9 7 -14 19 -11 27 3 8 1 11 -4 8 -14 -9 -12 -19 8 -41 23
-26 28 -56 7 -48 -8 3 -13 10 -10 14 3 5 1 11 -4 14 -17 11 -5 -24 14 -37 17
-13 17 -14 -4 -20 -19 -5 -20 -8 -10 -31 7 -14 16 -26 20 -26 4 0 7 -13 7 -30
-1 -16 -5 -30 -10 -30 -5 0 -6 5 -3 10 3 5 2 10 -4 10 -5 0 -9 -9 -8 -19 0
-11 5 -17 9 -15 4 3 8 0 8 -5 0 -10 -14 -15 -32 -12 -5 0 -8 -4 -8 -9 0 -6 -4
-10 -10 -10 -5 0 -9 3 -7 8 1 4 -2 7 -8 7 -5 0 -10 -6 -10 -13 0 -8 -19 -25
-43 -38 -24 -14 -41 -20 -38 -15 3 5 0 11 -8 14 -9 4 -12 0 -9 -13 3 -10 0
-21 -6 -24 -7 -5 -8 -1 -4 10 5 14 3 15 -14 6 -11 -6 -23 -8 -27 -5 -6 7 -24
12 -56 17 -9 1 -21 5 -28 10 -6 4 -16 5 -21 1 -5 -3 -13 0 -16 6 -4 5 -14 8
-22 5 -8 -4 -11 -1 -8 5 4 6 1 10 -6 8 -29 -3 -40 1 -33 14 5 7 0 6 -11 -3
-14 -11 -17 -11 -11 -1 7 10 4 12 -13 6 -17 -5 -20 -3 -15 12 5 17 5 17 -6 -1
-10 -15 -14 -16 -21 -5 -12 20 -11 31 3 23 7 -4 8 -3 4 5 -9 14 -26 5 -26 -15
0 -8 -5 -14 -11 -14 -6 0 -8 9 -4 23 7 20 6 21 -7 4 -13 -18 -48 -15 -48 4 0
5 -8 9 -17 8 -11 0 -13 -3 -5 -6 17 -7 15 -20 -4 -27 -8 -3 -13 -2 -10 2 2 4
0 14 -5 22 -9 13 -10 13 -6 0 2 -8 0 -23 -5 -34 -7 -13 -7 -16 1 -12 6 4 11 0
11 -9 0 -8 -10 -20 -22 -25 -21 -8 -21 -9 -3 -10 17 0 17 -2 5 -10 -13 -9 -13
-10 0 -10 13 0 13 -2 0 -9 -8 -6 -18 -7 -22 -5 -5 3 -3 -6 4 -20 6 -14 18 -26
25 -26 9 0 11 -5 7 -12 -5 -8 0 -7 11 2 15 12 17 12 10 1 -6 -11 -4 -13 8 -8
9 3 19 2 22 -2 3 -5 15 -7 27 -3 15 4 19 2 13 -7 -6 -10 0 -12 24 -6 26 6 30
4 25 -10 -5 -13 -8 -14 -15 -3 -5 7 -9 8 -9 2 0 -17 28 -50 36 -41 4 4 2 7 -4
7 -7 0 -12 5 -12 11 0 5 5 7 12 3 6 -4 8 -3 4 4 -3 6 -1 14 5 17 17 11 23 -3
9 -20 -8 -9 -8 -15 -2 -15 6 0 14 4 17 10 3 6 12 10 18 10 7 0 4 -5 -6 -11 -9
-6 -15 -14 -12 -20 4 -5 -2 -6 -11 -2 -11 4 -15 2 -11 -4 4 -6 -2 -18 -13 -28
-11 -10 -20 -13 -20 -7 0 6 8 16 17 21 16 9 16 10 2 11 -16 0 -34 -26 -31 -42
3 -12 -13 -9 -27 5 -10 10 -11 9 -5 -6 5 -14 2 -16 -12 -11 -11 4 -16 4 -12
-1 13 -14 -25 -35 -40 -22 -7 5 -12 6 -11 1 4 -22 -2 -33 -21 -39 -11 -3 -20
-11 -20 -16 0 -6 5 -7 10 -4 6 3 10 0 10 -8 0 -8 7 -20 15 -27 11 -9 12 -16 5
-25 -8 -9 -8 -15 0 -20 6 -3 8 -11 5 -16 -4 -5 -1 -9 4 -9 14 0 14 13 -1 28
-7 7 -8 12 -2 12 6 0 16 -11 22 -25 6 -14 16 -25 21 -25 6 0 8 -8 5 -17 -5
-14 -4 -15 4 -4 8 11 11 11 16 0 3 -8 3 -3 -1 11 -5 22 -4 23 11 11 9 -7 16
-10 16 -5 0 5 5 2 11 -6 9 -13 10 -13 6 0 -2 8 -10 14 -17 12 -11 -3 -11 0 0
13 7 8 15 13 18 11 2 -3 14 -1 25 5 15 9 18 8 12 -2 -6 -8 -4 -10 4 -5 7 5 10
14 8 20 -3 7 1 13 9 13 7 0 11 -4 8 -9 -3 -4 2 -5 11 -2 9 4 14 13 11 21 -5
11 -2 11 17 2 20 -11 21 -11 8 5 -12 14 -12 16 4 10 14 -6 16 -4 10 6 -5 8 -4
11 3 6 6 -3 9 -15 7 -26 -2 -10 2 -23 9 -29 9 -8 12 -4 12 14 0 13 -3 22 -6
20 -3 -2 -6 5 -6 15 0 11 2 17 5 15 2 -3 13 2 23 12 10 9 18 13 18 8 0 -4 -7
-13 -16 -20 -15 -10 -15 -13 1 -28 9 -9 11 -17 5 -17 -6 0 -9 -4 -5 -9 3 -5 1
-12 -4 -16 -6 -3 -7 -13 -4 -23 6 -14 4 -15 -9 -4 -13 11 -16 10 -14 -5 0 -10
-5 -17 -11 -15 -17 3 -16 -3 3 -23 13 -12 14 -19 5 -28 -8 -8 -11 -8 -11 1 0
7 -5 12 -11 12 -8 0 -9 -4 0 -13 6 -8 7 -18 3 -22 -4 -5 -1 -5 6 -1 10 6 11 1
6 -18 -5 -22 -3 -25 10 -20 12 5 19 0 23 -15 3 -11 9 -21 14 -21 5 0 6 7 3 15
-8 21 6 19 22 -2 9 -14 10 -22 1 -33 -6 -8 -2 -6 11 4 22 19 30 32 13 21 -5
-3 -12 -1 -15 4 -4 5 2 8 11 7 9 -2 19 -8 21 -14 2 -7 11 -12 20 -12 15 0 15
2 2 10 -8 5 -10 10 -5 10 6 0 17 -6 24 -12 10 -11 12 -10 9 2 -2 8 4 14 12 15
17 0 20 22 8 48 -5 9 -5 23 -1 30 4 6 9 21 10 32 2 11 6 27 10 35 3 8 7 22 7
30 1 9 9 14 21 12 19 -2 19 -2 2 9 -18 10 -18 11 0 32 10 11 12 17 6 13 -7 -4
-13 -2 -13 3 0 6 8 11 18 11 10 0 13 3 7 8 -10 6 -11 20 -5 40 1 4 2 11 1 16
-1 5 5 6 13 3 9 -4 18 -1 22 5 4 6 3 8 -3 5 -6 -4 -16 -1 -22 7 -9 10 -7 17 6
27 16 13 17 12 4 -3 -7 -10 -9 -18 -3 -18 15 0 22 26 10 38 -6 6 -6 12 1 16 6
4 11 4 11 -1 0 -4 7 3 16 16 12 16 23 22 40 18 14 -2 27 0 31 6 3 5 1 7 -4 4
-6 -4 -13 0 -16 8 -4 10 -1 12 10 8 11 -4 14 -2 9 5 -4 7 -5 12 -1 12 3 0 10
-10 16 -22 8 -21 9 -20 4 5 -4 17 -2 26 4 23 5 -4 13 -2 16 4 5 8 11 7 21 -1
7 -6 11 -16 7 -22 -4 -6 -1 -7 6 -2 9 5 10 10 2 18 -6 6 -11 15 -11 21 0 5 3
6 7 3 3 -4 13 -1 21 6 13 10 15 9 10 -4 -3 -9 -2 -22 3 -30 7 -12 9 -12 9 0 0
8 3 11 7 8 3 -4 13 -1 21 6 13 9 14 9 8 0 -5 -9 0 -13 16 -13 26 -1 58 -22 58
-39 0 -6 3 -10 8 -9 4 2 21 -6 38 -16 34 -20 42 -58 20 -85 -8 -12 -8 -13 2
-7 6 4 12 3 12 -3 0 -5 -6 -12 -12 -14 -10 -4 -10 -6 0 -6 6 -1 12 -7 12 -15
0 -8 -6 -17 -12 -19 -10 -4 -10 -6 0 -6 6 -1 12 -6 12 -12 0 -5 -4 -7 -10 -4
-5 3 -10 1 -10 -4 0 -6 5 -11 10 -11 6 0 10 -7 10 -17 0 -14 -3 -14 -22 3 -22
19 -23 19 -8 -1 8 -11 19 -23 23 -26 13 -10 -24 -41 -41 -34 -11 4 -12 2 -4
-7 7 -10 1 -22 -23 -46 -23 -22 -36 -29 -41 -21 -4 8 -3 9 4 5 7 -4 12 -2 12
4 0 7 -6 10 -12 8 -7 -3 -13 -15 -13 -29 0 -17 -6 -25 -22 -27 -13 -2 -23 -8
-23 -13 0 -6 6 -7 13 -3 6 3 -3 -8 -21 -26 -20 -19 -44 -33 -59 -33 -17 0 -21
-2 -12 -8 7 -4 17 -5 23 -2 5 4 6 1 1 -6 -4 -8 -17 -10 -34 -6 -22 5 -24 4
-11 -7 8 -7 14 -12 11 -11 -12 7 -66 -75 -56 -85 3 -3 5 0 5 6 0 7 5 12 12 12
6 0 8 -3 5 -7 -4 -3 2 -13 13 -20 11 -8 18 -19 15 -24 -5 -8 7 -13 26 -11 3 1
21 -15 39 -33 19 -19 39 -35 44 -35 6 0 3 5 -7 11 -18 10 -17 13 14 45 18 18
37 30 42 27 6 -4 8 1 4 12 -6 14 -3 16 12 12 11 -3 25 1 32 9 6 8 16 11 21 8
6 -4 5 -10 -3 -16 -11 -8 -11 -9 1 -5 16 4 40 -15 40 -32 0 -6 -5 -11 -12 -11
-6 0 -3 -7 8 -16 16 -13 16 -15 2 -10 -10 3 -18 1 -18 -4 0 -6 4 -10 9 -10 5
0 9 -11 9 -25 0 -13 -3 -23 -7 -21 -3 2 -7 -7 -7 -20 -2 -18 1 -22 10 -15 8 7
12 3 11 -16 0 -15 6 -28 15 -30 13 -4 13 -3 0 6 -12 9 -9 10 13 9 24 -2 31 -9
29 -29 -1 -3 5 -6 13 -6 10 0 11 5 4 19 -7 14 -6 18 6 18 10 0 13 -5 9 -12 -5
-8 0 -7 11 2 17 14 17 13 11 -10 -6 -24 -6 -25 5 -3 11 21 13 22 26 5 8 -9 12
-12 9 -5 -4 6 1 19 10 27 14 14 14 19 2 33 -7 9 -8 14 -2 10 7 -4 14 0 18 8 3
8 1 17 -4 20 -6 4 -10 11 -10 16 0 6 5 7 11 3 8 -4 8 -1 1 12 -11 24 -13 114
-1 114 4 0 13 -8 18 -17 6 -10 11 -13 11 -6 0 7 -10 22 -22 33 -17 16 -19 20
-5 15 14 -6 16 -3 11 11 -4 14 -3 15 4 6 5 -8 13 -14 18 -15 5 -1 8 -13 6 -27
-2 -23 -1 -23 9 -6 11 17 13 17 36 -10 23 -27 23 -29 6 -42 -17 -13 -16 -14 5
-7 17 5 30 1 48 -16 23 -21 99 -36 88 -17 -3 5 1 11 10 14 8 3 12 12 9 19 -2
8 -2 19 2 25 9 15 37 -8 28 -24 -3 -6 -2 -7 2 -3 11 10 16 39 5 32 -4 -3 -11
2 -14 11 -5 12 -2 15 10 10 12 -5 14 -1 8 16 -6 21 -5 22 12 8 10 -8 16 -10
12 -6 -4 5 -3 15 3 22 8 10 5 12 -16 8 -24 -4 -25 -3 -14 18 11 21 11 22 -5 9
-16 -13 -21 -11 -52 24 -19 21 -34 35 -34 30 0 -4 -9 0 -20 10 -11 10 -20 25
-20 33 0 9 -3 12 -7 9 -9 -9 -53 33 -53 50 0 8 -4 12 -8 9 -4 -2 -14 0 -22 6
-12 8 -12 9 2 4 10 -3 20 -1 23 5 4 5 1 8 -7 7 -8 -2 -12 5 -10 17 2 18 2 18
-8 2 -6 -9 -16 -17 -21 -17 -6 0 -8 4 -4 9 3 6 -3 15 -12 21 -15 9 -14 10 7 4
17 -4 22 -3 15 4 -5 6 -21 12 -35 14 -23 3 -25 7 -25 48 1 31 5 44 14 42 7 -1
10 2 6 7 -3 6 -13 8 -23 5 -9 -3 -6 2 8 11 14 9 17 14 8 11 -10 -3 -18 -1 -18
4 0 6 5 10 10 10 6 0 10 5 10 11 0 5 -4 7 -10 4 -5 -3 -10 -1 -10 4 0 6 5 11
11 11 6 0 3 7 -5 16 -14 14 -14 34 0 34 3 0 3 -4 -1 -9 -3 -5 -1 -12 4 -15 11
-7 9 13 -3 33 -7 11 -5 13 8 8 14 -6 17 -3 12 10 -6 15 -5 15 13 -1 19 -17 19
-17 15 1 -3 11 3 26 15 37 12 11 21 15 21 10 0 -5 4 -4 8 1 7 11 63 49 72 50
3 0 10 4 17 8 6 4 19 4 29 0 13 -5 15 -3 9 7 -5 7 3 5 17 -6 14 -10 23 -23 20
-28 -3 -5 4 -7 16 -4 13 4 20 2 19 -6 -1 -6 7 -10 18 -9 11 1 14 0 8 -3 -7 -3
-13 -10 -13 -15 0 -6 9 -5 21 2 15 8 19 8 15 0 -4 -6 -2 -11 3 -11 6 0 11 -5
11 -11 0 -8 -5 -8 -15 1 -9 7 -15 8 -15 2 0 -14 28 -23 35 -11 8 13 25 1 25
-17 0 -8 9 -24 19 -36 20 -20 20 -21 -1 -38 -17 -13 -18 -19 -8 -25 8 -5 11
-4 7 2 -4 6 0 13 8 17 18 6 18 5 5 -31 -10 -27 -10 -27 6 -8 15 18 16 18 10 2
-3 -10 -1 -27 5 -38 7 -15 7 -24 -2 -35 -6 -8 -8 -14 -3 -14 5 0 3 -4 -4 -9
-11 -7 -11 -9 1 -14 12 -4 15 0 12 15 -3 11 -1 18 2 14 7 -6 9 -14 19 -63 11
-57 11 -72 0 -67 -6 3 -2 -2 8 -10 17 -13 18 -18 6 -29 -10 -9 -11 -9 -6 0 5
9 2 11 -9 6 -13 -4 -14 -8 -4 -14 7 -4 17 -5 21 -3 4 3 8 -4 8 -15 0 -11 5
-23 12 -27 6 -4 8 -3 5 2 -3 6 3 15 13 22 21 13 36 1 24 -21 -3 -6 6 2 20 18
20 22 24 24 17 8 -8 -16 -8 -24 1 -29 6 -4 9 -3 5 2 -11 18 20 46 44 39 16 -5
19 -4 14 6 -6 9 -4 11 8 6 13 -5 15 -2 8 17 -5 12 -5 29 0 38 6 11 5 19 -2 24
-8 5 -9 3 -4 -6 5 -8 4 -11 -3 -7 -14 9 -9 36 9 48 10 8 8 9 -9 4 -21 -6 -21
-5 -11 19 7 14 16 23 20 20 5 -3 6 2 3 11 -5 11 -2 14 12 9 15 -5 16 -4 4 4
-8 6 -18 8 -24 5 -5 -3 -6 -1 -2 5 5 8 1 10 -9 5 -13 -5 -14 -7 -3 -14 10 -7
10 -11 -3 -25 -16 -15 -17 -14 -14 16 3 35 24 64 32 42 3 -6 10 -9 15 -6 7 5
8 2 4 -5 -5 -8 -3 -11 5 -10 17 4 60 -19 76 -40 7 -9 13 -12 13 -8 0 5 16 -1
35 -13 19 -12 40 -18 46 -14 8 5 9 3 4 -6 -5 -9 -4 -11 3 -6 7 4 12 13 12 20
0 7 7 21 16 32 15 19 15 18 5 -2 -7 -15 -7 -21 3 -21 6 0 13 14 14 31 3 38 7
42 29 25 16 -12 17 -12 6 2 -7 9 -9 20 -5 24 4 5 1 5 -5 1 -9 -5 -11 -2 -7 8
3 9 9 14 13 12 4 -3 7 6 7 19 0 13 -3 22 -7 19 -4 -2 -12 3 -17 12 -8 15 -10
15 -15 -1 -6 -15 -9 -15 -33 4 -15 12 -33 21 -41 21 -7 0 -16 7 -19 15 -4 8
-10 13 -14 10 -5 -3 -11 -1 -15 5 -4 6 -10 8 -15 5 -16 -10 -32 23 -21 44 7
13 8 22 1 26 -5 3 -10 2 -10 -2 0 -5 -7 -18 -15 -29 -14 -16 -14 -14 0 14 12
25 19 31 29 23 7 -6 12 -24 11 -40 -1 -17 2 -28 7 -25 5 4 7 13 4 21 -8 19 12
45 27 36 6 -3 7 -1 3 6 -6 9 -11 9 -22 0 -11 -9 -14 -8 -14 4 0 11 7 14 26 11
14 -3 23 -1 20 4 -7 12 26 12 41 0 7 -6 15 -3 22 9 8 14 12 16 22 6 16 -16 29
-17 29 -2 0 5 -4 7 -10 4 -5 -3 -10 -1 -10 6 0 7 8 9 21 6 12 -3 18 -3 15 0
-3 3 2 12 12 20 15 13 15 13 -6 3 -12 -6 -22 -7 -21 -3 1 4 0 11 -1 16 -1 4
-4 16 -5 27 -1 11 -4 22 -5 25 -1 3 -4 10 -5 15 -1 6 -4 13 -5 18 -1 4 -3 14
-4 22 -1 16 -29 18 -81 6 -16 -4 -37 -8 -45 -10 -20 -4 -42 13 -33 27 3 6 1 7
-6 3 -6 -4 -9 -11 -6 -16 8 -12 -21 -31 -57 -37 -18 -3 -39 -10 -47 -16 -11
-10 -13 -8 -6 12 5 16 4 21 -4 17 -6 -4 -11 -14 -11 -22 0 -8 -4 -14 -10 -14
-18 0 -25 -2 -42 -11 -12 -6 -18 -6 -18 1 0 5 -5 10 -11 10 -5 0 -7 -4 -4 -10
3 -5 1 -11 -4 -11 -6 -1 -17 -2 -23 -3 -7 -1 -17 0 -23 3 -5 3 -12 6 -15 7
-37 11 -50 18 -50 26 0 5 4 7 8 4 5 -3 9 1 9 8 0 15 -21 15 -34 1 -4 -4 -2 -5
6 0 10 5 12 4 7 -4 -9 -15 -29 -3 -23 13 4 9 -3 11 -19 8 -14 -2 -24 0 -24 7
0 7 -4 10 -9 6 -6 -3 -15 4 -21 16 -8 15 -9 19 -1 15 6 -4 11 -2 11 3 0 6 -4
11 -8 11 -4 0 -8 36 -8 79 0 49 3 78 9 74 6 -4 7 -1 2 8 -5 7 -10 25 -11 38
-2 15 0 20 4 14 10 -16 49 -13 49 3 0 9 -5 10 -19 3 -26 -14 -22 -4 6 15 18
11 27 13 32 4 5 -7 3 -8 -6 -3 -9 5 -11 4 -6 -4 6 -9 11 -9 22 0 16 13 19 23
4 14 -5 -3 -10 -1 -10 4 0 6 7 11 15 11 8 0 15 4 15 8 0 12 46 32 54 24 11
-10 37 -11 30 -1 -3 5 -10 7 -15 4 -5 -4 -9 -2 -9 3 0 6 7 13 16 16 8 3 13 2
10 -3 -3 -5 10 -8 31 -7 28 1 37 -3 39 -17 1 -11 6 -22 10 -25 4 -4 4 1 1 10
-3 10 -2 20 3 23 6 4 11 1 11 -4 3 -26 4 -30 11 -36 4 -4 5 5 2 21 -3 22 -2
25 6 14 5 -8 10 -11 10 -5 0 5 5 4 11 -2 6 -6 17 -9 24 -7 7 3 16 0 21 -7 4
-8 3 -10 -4 -5 -8 5 -10 2 -6 -9 6 -14 8 -14 19 2 13 17 14 17 20 1 4 -10 13
-18 21 -18 8 0 14 -5 14 -12 0 -6 6 -3 14 8 14 18 15 18 22 1 5 -15 9 -16 16
-5 7 9 8 7 5 -10 -3 -12 -1 -20 4 -16 5 3 9 13 9 22 0 14 2 15 9 2 6 -8 7 -18
4 -24 -3 -5 -1 -6 6 -2 6 4 9 11 7 15 -3 3 4 7 15 7 10 0 19 -4 19 -9 0 -5 7
-15 15 -23 8 -9 15 -12 15 -7 0 5 -5 14 -10 19 -7 7 -6 11 5 11 8 0 15 -3 15
-7 0 -3 10 -6 23 -7 20 -2 20 -1 4 8 -17 10 -17 12 -2 35 9 14 13 29 10 33 -7
12 5 41 17 41 7 0 6 -5 -1 -14 -9 -10 -8 -15 2 -19 9 -3 13 2 11 16 -1 12 -3
26 -3 30 -1 5 -6 5 -13 1 -7 -5 -8 -3 -3 7 15 24 13 48 -3 41 -11 -4 -14 -1
-10 10 4 8 1 15 -8 15 -7 0 -10 -5 -7 -10 4 -6 -4 -3 -16 6 -13 8 -30 13 -39
10 -11 -5 -13 -3 -7 8 8 12 6 12 -8 0 -10 -8 -21 -10 -25 -6 -4 4 -1 10 6 12
6 3 12 9 12 14 0 5 -9 4 -19 -3 -11 -7 -18 -16 -15 -20 3 -4 -2 -5 -10 -2 -9
3 -16 11 -16 16 0 6 -8 5 -17 -3 -15 -11 -16 -11 -5 1 19 22 14 35 -6 17 -10
-10 -23 -17 -28 -17 -4 0 2 7 14 16 19 13 21 18 10 32 -7 10 -8 14 -3 9 4 -4
17 0 27 10 10 9 21 13 25 10 3 -4 1 -7 -6 -7 -7 0 -10 -4 -6 -9 3 -5 1 -13 -5
-16 -13 -8 6 -35 24 -35 6 0 3 5 -6 10 -16 10 -16 12 0 39 10 18 22 27 31 23
10 -4 12 -1 6 9 -7 11 -5 11 10 -1 17 -14 18 -13 12 2 -4 12 0 21 14 29 11 6
23 8 26 5 4 -3 12 3 20 14 8 12 20 17 30 13 10 -4 14 -2 10 4 -4 6 0 14 9 17
18 7 11 22 -19 37 -19 9 -19 8 3 -10 17 -14 20 -21 10 -21 -18 0 -45 39 -41
59 1 8 -2 10 -11 5 -9 -5 -8 -2 2 11 14 17 13 18 -3 12 -15 -6 -17 -3 -12 14
5 15 4 19 -4 15 -6 -4 -11 -2 -11 4 0 6 -4 9 -9 5 -5 -3 -13 -1 -16 5 -5 8
-11 8 -19 1 -7 -6 -17 -7 -21 -3 -5 4 -5 1 -1 -6 6 -10 11 -10 22 -1 10 8 14
8 14 0 0 -6 -4 -11 -10 -11 -20 0 -25 -2 -39 -13 -12 -9 -13 -9 -7 1 4 6 2 12
-3 12 -6 0 -11 -10 -11 -22 0 -13 -4 -18 -8 -13 -12 17 -40 14 -35 -4 4 -15
-42 -44 -72 -46 -5 -1 -9 -6 -8 -12 1 -6 -6 -9 -17 -6 -11 3 -20 9 -20 14 0 5
8 6 18 2 15 -6 14 -3 -3 17 -11 13 -14 20 -6 15 10 -6 12 -2 6 14 -4 13 -2 21
5 21 7 0 10 7 6 15 -3 8 -1 15 4 15 6 0 10 12 10 28 0 15 1 44 4 65 2 21 1 36
-2 33 -3 -3 -12 0 -20 7 -13 9 -14 9 -8 0 4 -7 2 -13 -3 -13 -6 0 -11 5 -11
10 0 6 -5 10 -11 10 -5 0 -7 -4 -4 -10 3 -6 -1 -7 -10 -3 -12 4 -13 8 -5 13 8
5 4 9 -9 13 -13 3 -19 1 -15 -5 4 -6 -2 -6 -14 1 -15 8 -22 8 -25 -2 -3 -7 -6
-5 -6 5 -1 12 -6 15 -17 11 -9 -3 -12 -9 -7 -12 16 -12 13 -32 -4 -29 -10 2
-18 -1 -18 -7 0 -5 -4 -17 -10 -25 -8 -13 -7 -13 8 -1 9 7 14 18 10 24 -3 6
-1 7 5 3 8 -5 9 -13 3 -24 -4 -9 -7 -23 -5 -30 1 -7 0 -8 -3 -2 -2 5 -9 10
-14 10 -6 0 -5 -8 1 -20 7 -14 7 -20 0 -20 -5 0 -10 5 -10 10 0 6 -5 10 -11
10 -8 0 -9 -4 0 -13 6 -8 7 -18 3 -22 -4 -5 -2 -6 3 -2 6 3 12 -3 12 -14 1
-10 -3 -19 -8 -19 -6 0 -7 6 -3 13 4 7 3 9 -2 4 -5 -5 -9 -12 -9 -15 0 -4 -4
-14 -10 -22 -8 -13 -7 -13 10 0 17 14 17 13 10 -10 -5 -14 -8 -30 -8 -37 0 -6
-6 -9 -12 -6 -7 2 -15 -3 -19 -12 -3 -9 -11 -13 -17 -9 -8 5 -9 3 -4 -5 5 -9
10 -10 18 -2 13 13 27 14 27 3 0 -5 -10 -14 -22 -21 -13 -6 -15 -9 -5 -7 9 3
17 1 17 -4 0 -6 -5 -10 -11 -10 -8 0 -8 -4 0 -14 8 -10 9 -16 1 -21 -6 -3 -7
-12 -3 -18 4 -7 -1 -6 -10 2 -10 8 -20 11 -24 7 -3 -3 -1 -6 5 -6 7 0 12 -7
12 -16 0 -14 -3 -14 -15 -4 -13 11 -14 10 -9 -5 5 -12 4 -16 -3 -12 -7 5 -9 0
-6 -13 3 -12 0 -20 -7 -20 -7 0 -19 -8 -26 -17 -7 -10 -14 -13 -14 -6 0 6 9
18 20 26 18 12 18 15 6 20 -9 4 -15 1 -13 -5 1 -7 -5 -12 -13 -13 -9 0 -14 -8
-12 -19 2 -10 -1 -15 -6 -12 -6 3 -12 -1 -16 -9 -3 -9 -12 -12 -22 -8 -10 3
-15 2 -12 -3 3 -5 -3 -17 -13 -26 -16 -15 -18 -15 -24 0 -4 10 1 22 11 29 19
13 7 18 -12 5 -12 -8 -28 -45 -16 -38 5 3 9 -1 9 -8 0 -8 -7 -12 -14 -9 -8 3
-12 11 -9 18 2 6 0 18 -4 25 -7 12 -11 11 -25 0 -15 -12 -16 -10 -10 16 5 25
4 26 -4 7 -11 -25 -27 -32 -18 -9 4 10 0 12 -15 8 -15 -4 -19 -2 -14 7 5 8 3
11 -5 10 -17 -3 -69 21 -69 32 0 5 -8 6 -17 3 -15 -5 -15 -4 -3 5 11 7 19 6
31 -5 12 -11 19 -12 24 -4 4 6 1 9 -7 8 -7 -2 -12 3 -10 10 1 8 -2 11 -7 8 -5
-4 -15 2 -21 11 -11 17 -11 17 -6 0 3 -10 2 -16 -3 -13 -4 3 -7 28 -7 56 1 27
-3 50 -8 50 -5 0 -6 3 -3 6 4 4 12 2 20 -4 10 -8 13 -7 13 7 0 11 -6 17 -13
14 -7 -3 -13 -1 -13 5 0 6 5 12 10 14 13 4 21 46 10 53 -5 3 -7 -3 -5 -15 2
-11 -1 -22 -6 -26 -6 -3 -8 6 -6 23 3 19 9 27 21 25 9 -2 19 4 22 12 3 9 11
13 17 9 6 -3 7 -1 3 5 -4 6 -13 9 -21 6 -8 -4 -12 -11 -8 -17 4 -6 1 -7 -7 -2
-19 11 18 37 42 29 10 -3 18 0 18 6 0 6 -4 9 -9 5 -5 -3 -12 -1 -16 5 -3 5 1
10 9 10 9 0 16 7 16 15 0 8 6 12 14 9 8 -3 17 0 22 7 5 8 3 10 -7 4 -8 -4 4
10 26 31 22 21 39 42 38 46 -4 10 75 50 85 44 5 -3 14 0 22 6 12 8 12 9 -2 4
-10 -3 -20 -1 -23 4 -4 6 1 10 9 10 9 0 15 5 14 11 -2 6 3 14 11 17 9 3 11 0
6 -9 -5 -8 -4 -10 0 -6 11 10 16 39 6 32 -4 -2 -8 2 -8 10 0 8 5 12 11 9 6 -3
3 1 -6 9 -28 23 -21 31 10 11 19 -13 24 -13 15 -2 -7 8 -10 17 -8 20 3 3 -6 4
-20 2 -16 -1 -33 5 -43 16 -8 11 -19 17 -24 14 -4 -3 -8 2 -8 11 0 9 5 13 10
10 6 -3 10 -1 10 4 0 6 -7 11 -15 11 -8 0 -15 -5 -15 -11 0 -6 -7 -3 -16 5
-18 19 -39 21 -28 4 5 -8 2 -9 -10 -5 -13 5 -17 3 -13 -7 7 -17 -16 -40 -27
-28 -5 4 -6 -2 -4 -13 1 -11 -1 -20 -7 -21 -29 -5 -54 -17 -49 -25 3 -5 0 -9
-6 -9 -6 0 -9 -4 -5 -9 6 -11 -13 -26 -22 -18 -3 3 -1 12 3 19 12 19 14 39 3
32 -5 -3 -9 -1 -9 5 0 5 6 11 13 14 6 3 2 4 -10 4 -23 -1 -29 -8 -16 -21 11
-11 12 -36 2 -36 -6 0 -7 -4 -4 -10 3 -5 3 -10 -2 -10 -4 0 -9 23 -10 50 -1
34 2 48 9 44 7 -5 8 -2 2 7 -12 20 -14 39 -3 39 5 0 9 5 9 11 0 5 -4 7 -10 4
-5 -3 -10 1 -10 10 0 10 5 13 13 9 9 -6 9 -5 0 8 -7 8 -10 18 -7 21 4 4 8 17
9 31 2 17 -1 23 -10 20 -7 -3 -16 -1 -20 5 -7 12 -19 14 -27 5z m52 -34 c0 -5
-2 -10 -4 -10 -3 0 -8 5 -11 10 -3 6 -1 10 4 10 6 0 11 -4 11 -10z m-240 -182
c0 -5 -4 -8 -10 -8 -5 0 -10 5 -10 10 0 6 -3 9 -7 9 -17 -3 -24 1 -18 11 6 10
45 -9 45 -22z m254 -73 c-4 -8 -11 -12 -16 -9 -6 4 -5 10 3 15 19 12 19 11 13
-6z m-854 -165 c0 -5 -5 -10 -11 -10 -5 0 -7 5 -4 10 3 6 8 10 11 10 2 0 4 -4
4 -10z m286 -325 c1 -8 -4 -11 -11 -8 -8 2 -11 11 -8 19 6 16 16 11 19 -11z
m954 11 c0 -3 -4 -8 -10 -11 -5 -3 -10 -1 -10 4 0 6 5 11 10 11 6 0 10 -2 10
-4z m-1291 -39 c0 -9 -2 -8 -6 1 -2 6 -10 9 -15 6 -7 -4 -8 -2 -4 5 9 13 26 5
25 -12z m1775 -35 c3 -5 -1 -9 -9 -9 -8 0 -12 4 -9 9 3 4 7 8 9 8 2 0 6 -4 9
-8z m-709 -12 c3 -5 1 -10 -4 -10 -6 0 -11 5 -11 10 0 6 2 10 4 10 3 0 8 -4
11 -10z m-243 -74 c3 2 8 -2 11 -10 6 -16 -13 -18 -24 -3 -3 5 -9 2 -12 -6 -6
-15 28 -18 52 -3 10 7 12 3 7 -15 -3 -13 -3 -18 0 -11 7 15 34 16 34 1 0 -5
-5 -7 -12 -3 -7 4 -8 3 -4 -4 5 -9 13 -9 29 0 20 10 21 10 8 -6 -12 -15 -12
-16 5 -9 16 6 17 5 6 -9 -10 -13 -10 -18 -1 -24 7 -4 9 -3 6 3 -4 6 0 16 8 23
13 10 15 9 15 -9 0 -11 5 -21 11 -21 5 0 7 5 3 11 -5 8 -1 8 14 0 12 -6 24
-16 28 -23 4 -7 3 -8 -4 -4 -16 10 -15 -7 1 -23 10 -11 10 -13 0 -7 -12 6 -15
0 -12 -20 0 -4 -5 -11 -13 -16 -10 -8 -10 -9 2 -5 8 2 14 11 12 18 -2 8 0 11
4 6 11 -10 12 -67 2 -73 -4 -3 -8 -10 -8 -15 0 -6 6 -7 13 -3 9 6 9 4 -1 -8
-10 -13 -10 -17 0 -21 8 -4 7 -6 -4 -6 -10 -1 -18 -6 -18 -12 0 -5 -6 -7 -12
-3 -9 5 -9 3 1 -9 7 -9 17 -15 21 -12 5 3 12 0 16 -6 4 -8 3 -9 -4 -5 -7 4
-12 2 -12 -5 0 -10 -3 -10 -12 -1 -15 15 -28 15 -28 1 0 -5 5 -7 10 -4 6 3 10
2 10 -3 0 -14 -12 -22 -24 -15 -18 12 -36 12 -33 0 1 -6 -3 -11 -10 -12 -18 0
-25 -12 -12 -21 8 -5 10 -3 4 7 -5 8 -4 11 0 6 5 -4 17 0 27 10 10 9 18 13 18
10 0 -3 -10 -15 -21 -26 -16 -15 -26 -18 -40 -11 -25 14 -26 14 -39 -22 -11
-33 -11 -33 -23 -11 l-12 23 -14 -23 c-13 -19 -12 -21 1 -10 12 10 15 10 15
-1 0 -16 -13 -15 -45 2 -13 8 -20 18 -16 24 5 8 1 9 -11 5 -14 -6 -16 -3 -12
15 6 22 5 22 -8 4 -10 -13 -15 -15 -15 -6 0 7 -3 10 -6 7 -10 -9 -46 12 -39
23 4 6 -1 7 -11 3 -12 -4 -15 -3 -10 5 4 7 2 12 -6 12 -35 1 -42 18 -43 109 0
86 1 90 20 86 11 -3 14 -2 7 1 -6 3 -9 11 -5 17 4 6 0 8 -9 5 -8 -4 -15 -1
-15 7 0 7 6 11 14 8 7 -3 13 -1 13 5 0 6 -6 13 -12 15 -8 4 -7 6 3 6 9 1 22 8
29 16 10 12 16 13 28 3 13 -11 15 -10 9 4 -7 19 8 34 18 19 3 -6 13 -7 22 -4
12 5 14 3 8 -8 -5 -8 -4 -11 0 -6 11 10 15 37 6 37 -4 0 -13 -6 -21 -12 -8 -7
-6 -3 5 10 11 13 21 19 23 13 2 -6 8 -11 13 -11 6 0 8 4 5 9 -3 5 1 14 9 21 8
7 15 9 15 4 0 -4 5 -3 12 4 7 7 16 8 23 2 7 -5 14 -7 17 -4z m808 -66 c0 -5
-7 -7 -15 -4 -8 4 -15 8 -15 10 0 2 7 4 15 4 8 0 15 -4 15 -10z m-1220 -180
c0 -11 -2 -20 -5 -20 -2 0 -9 9 -15 20 -9 16 -8 20 5 20 8 0 15 -9 15 -20z
m600 -64 c0 -2 -7 -7 -16 -10 -8 -3 -12 -2 -9 4 6 10 25 14 25 6z m620 -66 c0
-5 -5 -10 -11 -10 -5 0 -7 5 -4 10 3 6 8 10 11 10 2 0 4 -4 4 -10z m-754 -42
c4 -7 3 -8 -4 -4 -7 4 -12 2 -12 -5 0 -7 -3 -10 -6 -6 -6 5 3 27 11 27 2 0 7
-5 11 -12z m-343 -91 c3 -8 -1 -14 -8 -14 -7 0 -11 6 -8 14 3 7 6 13 8 13 2 0
5 -6 8 -13z m1054 -69 c-3 -8 -6 -5 -6 6 -1 11 2 17 5 13 3 -3 4 -12 1 -19z
m-1597 -23 c-7 -9 -15 -13 -19 -10 -3 3 1 10 9 15 21 14 24 12 10 -5z m1820
-110 c11 -13 10 -14 -4 -9 -9 3 -16 10 -16 15 0 13 6 11 20 -6z m-300 -35 c0
-5 -5 -10 -11 -10 -5 0 -7 5 -4 10 3 6 8 10 11 10 2 0 4 -4 4 -10z m-1450
-140 c0 -5 -5 -10 -11 -10 -5 0 -7 5 -4 10 3 6 8 10 11 10 2 0 4 -4 4 -10z
m156 -106 c1 -9 0 -13 -4 -10 -3 4 -7 14 -8 22 -1 9 0 13 4 10 3 -4 7 -14 8
-22z m482 -156 c-10 -6 -10 -8 0 -8 6 0 12 -8 12 -17 0 -14 -4 -13 -21 6 -20
21 -22 21 -39 6 -12 -11 -20 -13 -25 -6 -3 6 5 16 19 22 14 7 23 16 20 21 -3
4 6 3 21 -4 18 -8 22 -14 13 -20z m432 -78 c0 -5 -10 -15 -22 -21 l-23 -12 20
21 c23 24 25 25 25 12z"/>
<path d="M1276 1511 c-3 -5 1 -11 9 -14 9 -4 12 -1 8 9 -6 16 -10 17 -17 5z"/>
<path d="M1150 1435 c-7 -9 -11 -17 -9 -20 3 -2 10 5 17 15 14 24 10 26 -8 5z"/>
<path d="M1480 1380 c-9 -6 -10 -10 -3 -10 6 0 15 5 18 10 8 12 4 12 -15 0z"/>
<path d="M1112 1318 c2 -6 10 -13 16 -14 7 -1 8 0 2 3 -5 2 -8 9 -4 14 3 5 0
9 -6 9 -7 0 -10 -5 -8 -12z"/>
<path d="M1505 1311 c-3 -5 -2 -12 3 -15 5 -3 9 1 9 9 0 17 -3 19 -12 6z"/>
<path d="M1120 1260 c8 -5 20 -10 25 -10 6 0 3 5 -5 10 -8 5 -19 10 -25 10 -5
0 -3 -5 5 -10z"/>
<path d="M1113 1235 c0 -8 4 -15 9 -15 4 0 8 4 8 9 0 6 -4 12 -8 15 -5 3 -9
-1 -9 -9z"/>
<path d="M1110 1205 c0 -2 6 -8 13 -14 10 -8 14 -7 14 2 0 8 -6 14 -14 14 -7
0 -13 -1 -13 -2z"/>
<path d="M1150 1203 c0 -6 8 -17 18 -24 16 -13 16 -13 2 6 -8 11 -16 22 -17
24 -2 2 -3 0 -3 -6z"/>
<path d="M1191 1158 c-1 -22 11 -29 29 -16 12 8 12 9 -2 4 -10 -3 -18 1 -21
12 -4 16 -5 16 -6 0z"/>
<path d="M1280 1116 c0 -2 7 -7 16 -10 8 -3 12 -2 9 4 -6 10 -25 14 -25 6z"/>
<path d="M1270 1096 c0 -2 7 -7 16 -10 8 -3 12 -2 9 4 -6 10 -25 14 -25 6z"/>
<path d="M1197 2359 c7 -7 15 -10 18 -7 3 3 -2 9 -12 12 -14 6 -15 5 -6 -5z"/>
<path d="M989 2323 c-13 -16 -12 -17 4 -4 9 7 17 15 17 17 0 8 -8 3 -21 -13z"/>
<path d="M1526 2298 c3 -5 10 -6 15 -3 13 9 11 12 -6 12 -8 0 -12 -4 -9 -9z"/>
<path d="M1666 2297 c3 -10 9 -15 12 -12 3 3 0 11 -7 18 -10 9 -11 8 -5 -6z"/>
<path d="M1496 2274 c-3 -8 -10 -13 -15 -9 -5 3 -12 1 -15 -4 -5 -8 15 -8 34
-1 3 1 8 2 12 1 4 0 5 6 2 14 -8 19 -10 19 -18 -1z"/>
<path d="M1196 2205 c4 -8 10 -12 15 -9 11 6 2 24 -11 24 -5 0 -7 -7 -4 -15z"/>
<path d="M680 2116 c0 -8 4 -17 9 -20 5 -4 7 3 4 14 -6 23 -13 26 -13 6z"/>
<path d="M1610 2105 l-25 -14 26 1 c14 1 26 8 26 15 0 7 -1 13 -1 13 -1 -1
-12 -7 -26 -15z"/>
<path d="M715 2100 c3 -5 8 -10 11 -10 2 0 4 5 4 10 0 6 -5 10 -11 10 -5 0 -7
-4 -4 -10z"/>
<path d="M991 2106 c2 -2 14 -9 26 -15 18 -9 22 -9 18 2 -3 7 -15 13 -26 14
-12 1 -20 1 -18 -1z"/>
<path d="M2017 2099 c7 -7 15 -10 18 -7 3 3 -2 9 -12 12 -14 6 -15 5 -6 -5z"/>
<path d="M1580 2060 c-6 -11 -15 -18 -19 -16 -4 3 -8 -1 -8 -9 0 -19 -1 -20
30 15 15 17 23 30 17 30 -5 0 -14 -9 -20 -20z"/>
<path d="M2095 2059 c-4 -6 -5 -12 -2 -15 2 -3 7 2 10 11 7 17 1 20 -8 4z"/>
<path d="M746 2033 c-4 -9 -2 -21 4 -27 8 -8 9 -6 4 8 -5 13 -4 17 4 12 8 -5
10 -2 6 8 -8 20 -10 20 -18 -1z"/>
<path d="M2086 2017 c3 -10 9 -15 12 -12 3 3 0 11 -7 18 -10 9 -11 8 -5 -6z"/>
<path d="M1535 2000 c-3 -5 -1 -10 4 -10 6 0 11 5 11 10 0 6 -2 10 -4 10 -3 0
-8 -4 -11 -10z"/>
<path d="M335 1950 c-3 -6 1 -7 9 -4 18 7 21 14 7 14 -6 0 -13 -4 -16 -10z"/>
<path d="M1160 1940 c-6 -11 -8 -20 -6 -20 3 0 10 9 16 20 6 11 8 20 6 20 -3
0 -10 -9 -16 -20z"/>
<path d="M765 1940 c-3 -5 -1 -10 4 -10 6 0 11 5 11 10 0 6 -2 10 -4 10 -3 0
-8 -4 -11 -10z"/>
<path d="M1181 1924 c0 -11 3 -14 6 -6 3 7 2 16 -1 19 -3 4 -6 -2 -5 -13z"/>
<path d="M555 1920 c3 -5 8 -10 11 -10 2 0 4 5 4 10 0 6 -5 10 -11 10 -5 0 -7
-4 -4 -10z"/>
<path d="M2074 1922 c4 -7 1 -14 -7 -17 -7 -3 -13 -15 -12 -25 2 -31 15 -36
15 -6 0 15 4 25 9 22 11 -7 8 21 -4 31 -4 4 -5 2 -1 -5z"/>
<path d="M300 1900 c-9 -6 -10 -10 -3 -10 6 0 15 5 18 10 8 12 4 12 -15 0z"/>
<path d="M780 1896 c0 -2 8 -10 18 -17 15 -13 16 -12 3 4 -13 16 -21 21 -21
13z"/>
<path d="M2120 1891 c0 -7 -4 -10 -9 -6 -6 3 -15 -4 -21 -15 -11 -20 -10 -21
9 -11 23 13 35 30 27 38 -3 4 -6 1 -6 -6z"/>
<path d="M2340 1886 c0 -2 7 -9 15 -16 13 -11 14 -10 9 4 -5 14 -24 23 -24 12z"/>
<path d="M280 1860 c-6 -11 -15 -18 -20 -15 -5 3 -11 1 -14 -4 -4 -5 2 -8 11
-7 15 3 53 46 40 46 -4 0 -11 -9 -17 -20z"/>
<path d="M790 1826 c0 -2 7 -7 16 -10 8 -3 12 -2 9 4 -6 10 -25 14 -25 6z"/>
<path d="M809 1781 c6 -10 7 -21 4 -25 -3 -3 -1 -6 5 -6 15 0 11 38 -5 45 -10
3 -11 0 -4 -14z"/>
<path d="M1410 1781 c0 -5 8 -15 18 -22 15 -12 16 -12 5 2 -7 9 -10 19 -6 22
3 4 1 7 -5 7 -7 0 -12 -4 -12 -9z"/>
<path d="M2336 1781 c-3 -5 1 -11 9 -14 9 -4 12 -1 8 9 -6 16 -10 17 -17 5z"/>
<path d="M302 1764 c10 -10 20 -16 22 -13 3 3 -5 11 -17 18 -21 13 -21 12 -5
-5z"/>
<path d="M1802 1764 c10 -10 20 -16 22 -13 3 3 -5 11 -17 18 -21 13 -21 12 -5
-5z"/>
<path d="M1195 1750 c-3 -6 1 -7 9 -4 18 7 21 14 7 14 -6 0 -13 -4 -16 -10z"/>
<path d="M2281 1751 c-8 -5 -9 -11 -3 -15 5 -3 12 1 16 9 6 17 6 18 -13 6z"/>
<path d="M2305 1740 c-3 -6 1 -7 9 -4 18 7 21 14 7 14 -6 0 -13 -4 -16 -10z"/>
<path d="M337 1729 c7 -7 15 -10 18 -7 3 3 -2 9 -12 12 -14 6 -15 5 -6 -5z"/>
<path d="M820 1736 c0 -2 7 -7 16 -10 8 -3 12 -2 9 4 -6 10 -25 14 -25 6z"/>
<path d="M379 1713 c-13 -16 -12 -17 4 -4 9 7 17 15 17 17 0 8 -8 3 -21 -13z"/>
<path d="M395 1691 c-3 -5 -2 -12 3 -15 5 -3 9 1 9 9 0 17 -3 19 -12 6z"/>
<path d="M2216 1682 c-3 -5 1 -9 9 -9 8 0 12 4 9 9 -3 4 -7 8 -9 8 -2 0 -6 -4
-9 -8z"/>
<path d="M393 1645 c0 -8 4 -12 9 -9 5 3 6 10 3 15 -9 13 -12 11 -12 -6z"/>
<path d="M1096 1647 c3 -10 9 -15 12 -12 3 3 0 11 -7 18 -10 9 -11 8 -5 -6z"/>
<path d="M1674 1649 c-3 -6 -2 -15 3 -20 5 -5 9 -1 9 11 0 23 -2 24 -12 9z"/>
<path d="M1073 1625 c0 -8 4 -12 9 -9 5 3 6 10 3 15 -9 13 -12 11 -12 -6z"/>
<path d="M987 1616 c-4 -9 -1 -18 5 -22 7 -4 8 -3 4 4 -4 7 -3 12 3 12 5 0 11
-6 14 -12 2 -7 7 -10 11 -7 3 3 -2 13 -13 23 -16 15 -19 15 -24 2z"/>
<path d="M2376 1582 c-2 -4 -1 -14 4 -22 7 -11 9 -9 7 8 -1 24 -3 26 -11 14z"/>
<path d="M1930 1498 c0 -4 4 -8 9 -8 6 0 12 4 15 8 3 5 -1 9 -9 9 -8 0 -15 -4
-15 -9z"/>
<path d="M653 1485 c0 -8 4 -15 9 -15 4 0 8 7 8 15 0 8 -4 15 -8 15 -5 0 -9
-7 -9 -15z"/>
<path d="M1843 1493 c-15 -5 -17 -23 -4 -23 5 0 11 7 15 15 3 8 4 15 3 14 -1
0 -8 -3 -14 -6z"/>
<path d="M616 1473 c-6 -14 -5 -15 5 -6 7 7 10 15 7 18 -3 3 -9 -2 -12 -12z"/>
<path d="M802 1470 c7 -10 14 -18 15 -16 6 6 -9 36 -18 36 -5 0 -4 -9 3 -20z"/>
<path d="M260 1476 c0 -2 7 -7 16 -10 8 -3 12 -2 9 4 -6 10 -25 14 -25 6z"/>
<path d="M1810 1460 c0 -5 5 -10 11 -10 5 0 7 5 4 10 -3 6 -8 10 -11 10 -2 0
-4 -4 -4 -10z"/>
<path d="M2035 1460 c-3 -5 -1 -10 4 -10 6 0 11 5 11 10 0 6 -2 10 -4 10 -3 0
-8 -4 -11 -10z"/>
<path d="M2354 1456 c-10 -8 -17 -16 -14 -19 3 -2 14 4 24 14 23 22 18 25 -10
5z"/>
<path d="M500 1451 c-8 -6 -18 -7 -22 -5 -4 3 -8 1 -8 -4 0 -6 10 -9 23 -8 13
0 24 7 24 14 0 6 -1 12 -1 12 -1 0 -8 -4 -16 -9z"/>
<path d="M836 1452 c-3 -5 1 -9 9 -9 8 0 12 4 9 9 -3 4 -7 8 -9 8 -2 0 -6 -4
-9 -8z"/>
<path d="M435 1428 l-20 -21 23 12 c12 6 22 16 22 21 0 13 -2 12 -25 -12z"/>
<path d="M390 1420 c0 -5 5 -10 10 -10 6 0 10 5 10 10 0 6 -4 10 -10 10 -5 0
-10 -4 -10 -10z"/>
<path d="M350 1411 c0 -7 -5 -9 -12 -5 -7 5 -8 3 -3 -5 5 -9 10 -10 18 -2 6 6
8 14 4 18 -4 3 -7 1 -7 -6z"/>
<path d="M1735 1381 c-3 -5 -2 -12 3 -15 5 -3 9 1 9 9 0 17 -3 19 -12 6z"/>
<path d="M1715 1321 c-3 -5 -2 -12 3 -15 5 -3 9 1 9 9 0 17 -3 19 -12 6z"/>
<path d="M893 1235 c0 -7 6 -11 14 -8 7 3 13 6 13 8 0 2 -6 5 -13 8 -8 3 -14
-1 -14 -8z"/>
<path d="M1716 1233 c-6 -14 -5 -15 5 -6 7 7 10 15 7 18 -3 3 -9 -2 -12 -12z"/>
<path d="M873 1185 c0 -8 6 -16 14 -19 11 -4 11 -1 3 14 -13 24 -17 25 -17 5z"/>
<path d="M1726 1184 c-4 -10 -4 -15 0 -11 4 4 12 3 18 -3 7 -5 17 -5 26 0 14
9 7 12 -16 9 -4 0 -10 5 -14 11 -5 8 -9 6 -14 -6z"/>
<path d="M356 1178 c3 -5 10 -6 15 -3 13 9 11 12 -6 12 -8 0 -12 -4 -9 -9z"/>
<path d="M2187 1176 c-4 -10 -1 -13 9 -9 15 6 19 23 5 23 -5 0 -11 -7 -14 -14z"/>
<path d="M555 1140 c-3 -5 -1 -10 4 -10 6 0 11 5 11 10 0 6 -2 10 -4 10 -3 0
-8 -4 -11 -10z"/>
<path d="M813 1134 c-3 -8 -11 -13 -18 -10 -6 2 -18 1 -24 -4 -9 -5 -3 -7 14
-7 14 0 29 6 32 13 3 8 10 11 16 7 6 -3 7 -1 3 5 -10 16 -15 15 -23 -4z"/>
<path d="M2323 1144 c14 -4 15 -9 7 -19 -8 -9 -7 -14 3 -18 9 -3 13 2 12 16
-1 14 -9 23 -21 24 -17 2 -17 1 -1 -3z"/>
<path d="M581 1124 c0 -11 3 -14 6 -6 3 7 2 16 -1 19 -3 4 -6 -2 -5 -13z"/>
<path d="M615 1120 c-3 -5 -1 -10 4 -10 6 0 11 5 11 10 0 6 -2 10 -4 10 -3 0
-8 -4 -11 -10z"/>
<path d="M1870 1125 c0 -5 5 -17 10 -25 5 -8 10 -10 10 -5 0 6 -5 17 -10 25
-5 8 -10 11 -10 5z"/>
<path d="M1946 1119 c2 -4 13 -7 24 -6 23 2 17 10 -10 12 -10 1 -17 -2 -14 -6z"/>
<path d="M690 1101 c0 -6 4 -13 10 -16 6 -3 7 1 4 9 -7 18 -14 21 -14 7z"/>
<path d="M2334 1074 c1 -8 6 -17 11 -21 4 -4 5 -2 1 5 -4 6 -2 12 3 12 6 0 11
4 11 8 0 5 -6 9 -14 9 -7 0 -13 -6 -12 -13z"/>
<path d="M1585 1009 c-4 -6 -4 -13 -1 -16 3 -4 6 -1 6 6 0 8 6 11 16 7 8 -3
12 -2 9 4 -8 13 -22 13 -30 -1z"/>
<path d="M1633 1005 c0 -8 4 -15 9 -15 4 0 8 4 8 9 0 6 -4 12 -8 15 -5 3 -9
-1 -9 -9z"/>
<path d="M1555 1000 c-3 -5 -1 -10 4 -10 6 0 11 5 11 10 0 6 -2 10 -4 10 -3 0
-8 -4 -11 -10z"/>
<path d="M965 989 c-4 -6 -5 -12 -2 -15 2 -3 7 2 10 11 7 17 1 20 -8 4z"/>
<path d="M334 969 c3 -15 36 -21 36 -7 0 6 -6 8 -14 5 -8 -3 -17 -2 -20 4 -2
5 -3 4 -2 -2z"/>
<path d="M1093 961 c0 -11 5 -18 9 -15 4 3 5 11 1 19 -7 21 -12 19 -10 -4z"/>
<path d="M1120 960 c6 -11 13 -20 16 -20 2 0 0 9 -6 20 -6 11 -13 20 -16 20
-2 0 0 -9 6 -20z"/>
<path d="M1528 973 c-17 -4 -33 -32 -23 -41 3 -3 5 0 5 7 0 7 5 9 12 5 7 -5 8
-3 3 6 -6 9 -4 12 7 8 9 -4 15 0 15 8 0 8 -1 13 -1 13 -1 -1 -8 -3 -18 -6z"/>
<path d="M1670 966 c0 -2 7 -7 16 -10 8 -3 12 -2 9 4 -6 10 -25 14 -25 6z"/>
<path d="M1472 947 c-7 -8 -7 -18 -2 -27 6 -8 10 -10 11 -5 0 6 2 18 4 28 4
20 1 21 -13 4z"/>
<path d="M2190 939 c0 -5 5 -7 10 -4 6 3 10 8 10 11 0 2 -4 4 -10 4 -5 0 -10
-5 -10 -11z"/>
<path d="M860 921 c-13 -25 -13 -31 2 -31 6 0 8 3 5 6 -3 4 -2 15 4 25 5 11 7
19 5 19 -3 0 -10 -9 -16 -19z"/>
<path d="M893 925 c0 -8 4 -12 9 -9 5 3 6 10 3 15 -9 13 -12 11 -12 -6z"/>
<path d="M1163 924 c0 -7 3 -12 5 -9 3 3 16 -2 29 -10 33 -22 29 -10 -5 14
-22 16 -29 17 -29 5z"/>
<path d="M1762 910 c-7 -11 -8 -20 -3 -20 9 0 24 30 18 36 -1 2 -8 -6 -15 -16z"/>
<path d="M390 900 c-9 -6 -10 -10 -3 -10 6 0 15 5 18 10 8 12 4 12 -15 0z"/>
<path d="M2190 899 c0 -5 5 -7 10 -4 6 3 10 8 10 11 0 2 -4 4 -10 4 -5 0 -10
-5 -10 -11z"/>
<path d="M2245 881 c-3 -5 -2 -12 3 -15 5 -3 9 1 9 9 0 17 -3 19 -12 6z"/>
<path d="M1202 871 c-11 -7 -11 -9 0 -14 9 -3 15 1 15 9 0 8 -1 14 -1 14 -1 0
-7 -4 -14 -9z"/>
<path d="M1793 865 c0 -8 4 -12 9 -9 5 3 6 10 3 15 -9 13 -12 11 -12 -6z"/>
<path d="M326 843 c-6 -14 -5 -15 5 -6 7 7 10 15 7 18 -3 3 -9 -2 -12 -12z"/>
<path d="M2282 846 c7 -8 15 -12 17 -11 5 6 -10 25 -20 25 -5 0 -4 -6 3 -14z"/>
<path d="M270 815 c-11 -13 -10 -14 4 -9 9 3 16 10 16 15 0 13 -6 11 -20 -6z"/>
<path d="M811 811 c-8 -5 -9 -11 -3 -15 5 -3 12 1 16 9 6 17 6 18 -13 6z"/>
<path d="M1419 748 c0 -2 -2 -17 -3 -34 -2 -24 1 -31 12 -27 7 3 10 9 5 12 -5
3 -8 16 -7 29 1 18 -3 30 -7 20z"/>
<path d="M277 729 c7 -7 15 -10 18 -7 3 3 -2 9 -12 12 -14 6 -15 5 -6 -5z"/>
<path d="M2096 726 c3 -9 12 -16 19 -16 7 0 15 -6 18 -12 2 -7 7 -10 11 -7 4
4 -7 17 -23 29 -23 16 -29 17 -25 6z"/>
<path d="M530 700 c0 -5 5 -10 11 -10 5 0 7 5 4 10 -3 6 -8 10 -11 10 -2 0 -4
-4 -4 -10z"/>
<path d="M1190 679 c0 -5 5 -7 10 -4 6 3 10 8 10 11 0 2 -4 4 -10 4 -5 0 -10
-5 -10 -11z"/>
<path d="M2159 672 c-11 -14 -11 -15 1 -5 10 10 19 8 42 -9 16 -11 31 -19 33
-16 2 2 -11 13 -30 25 -31 21 -34 21 -46 5z"/>
<path d="M775 660 c3 -5 8 -10 11 -10 2 0 4 5 4 10 0 6 -5 10 -11 10 -5 0 -7
-4 -4 -10z"/>
<path d="M1845 660 c3 -5 8 -10 11 -10 2 0 4 5 4 10 0 6 -5 10 -11 10 -5 0 -7
-4 -4 -10z"/>
<path d="M2276 653 c-6 -14 -5 -15 5 -6 7 7 10 15 7 18 -3 3 -9 -2 -12 -12z"/>
<path d="M744 589 c-3 -6 -1 -16 5 -22 9 -9 10 -7 5 7 -6 15 -4 17 6 11 9 -5
11 -4 6 3 -9 15 -13 15 -22 1z"/>
<path d="M1521 584 c-2 -18 36 -47 44 -34 4 6 4 14 1 17 -3 4 -6 1 -6 -6 0 -7
-4 -10 -10 -6 -5 3 -7 13 -4 23 5 13 4 14 -4 3 -8 -11 -10 -11 -15 0 -3 8 -6
9 -6 3z"/>
<path d="M1078 563 c7 -3 16 -2 19 1 4 3 -2 6 -13 5 -11 0 -14 -3 -6 -6z"/>
<path d="M1045 530 c6 -10 4 -12 -8 -7 -10 4 -16 2 -14 -5 1 -5 -6 -12 -16
-13 -11 -2 -22 -6 -25 -9 -12 -13 36 0 59 15 17 12 20 17 9 24 -9 6 -11 4 -5
-5z"/>
<path d="M1580 524 c0 -20 24 -34 40 -24 14 9 7 12 -16 9 -4 0 -11 5 -15 13
-5 8 -9 9 -9 2z"/>
<path d="M2013 515 c0 -8 4 -12 9 -9 4 3 8 9 8 15 0 5 -4 9 -8 9 -5 0 -9 -7
-9 -15z"/>
<path d="M1652 466 c15 -13 25 -27 22 -30 -2 -3 -1 -4 3 -1 15 11 11 34 -5 28
-11 -5 -13 -3 -7 7 5 9 4 11 -3 6 -7 -4 -12 -2 -12 3 0 6 -6 11 -12 11 -7 0
-1 -11 14 -24z"/>
<path d="M1435 390 c-3 -5 -1 -10 4 -10 6 0 11 5 11 10 0 6 -2 10 -4 10 -3 0
-8 -4 -11 -10z"/>
<path d="M1473 352 c0 -11 5 -18 9 -16 4 3 8 0 8 -7 0 -7 3 -10 6 -6 3 3 -1
16 -9 28 -16 22 -16 22 -14 1z"/>
<path d="M943 325 c0 -8 4 -12 9 -9 5 3 6 10 3 15 -9 13 -12 11 -12 -6z"/>
<path d="M1175 320 c3 -5 8 -10 11 -10 2 0 4 5 4 10 0 6 -5 10 -11 10 -5 0 -7
-4 -4 -10z"/>
<path d="M1410 321 c0 -16 28 -33 35 -21 4 6 1 9 -7 8 -7 -2 -12 3 -10 10 1 6
-2 12 -8 12 -5 0 -10 -4 -10 -9z"/>
<path d="M1096 301 c-13 -14 -14 -21 -5 -27 7 -4 10 -3 7 2 -3 5 0 14 7 21 11
10 15 10 18 0 4 -9 6 -9 6 0 2 21 -16 23 -33 4z"/>
<path d="M984 288 c-4 -7 -3 -8 4 -4 7 4 12 3 12 -2 0 -6 8 -13 17 -16 15 -6
15 -4 -2 14 -21 23 -22 24 -31 8z"/>
<path d="M1533 285 c0 -8 5 -11 10 -8 6 4 8 0 4 -10 -4 -11 -2 -14 9 -10 13 5
13 8 -2 24 -21 23 -21 23 -21 4z"/>
<path d="M1194 240 c0 -13 4 -16 10 -10 7 7 7 13 0 20 -6 6 -10 3 -10 -10z"/>
</g>
</svg>
